<?xml version="1.0" standalone="no"?>
<!DOCTYPE svg PUBLIC "-//W3C//DTD SVG 20010904//EN"
 "http://www.w3.org/TR/2001/REC-SVG-20010904/DTD/svg10.dtd">
<svg version="1.0" xmlns="http://www.w3.org/2000/svg"
 width="512.000000pt" height="512.000000pt" viewBox="0 0 512.000000 512.000000"
 preserveAspectRatio="xMidYMid meet">
<metadata>
Created by potrace 1.11, written by Peter Selinger 2001-2013
</metadata>
<g transform="translate(0.000000,512.000000) scale(0.100000,-0.100000)"
fill="#000000" stroke="none">
<path d="M0 2560 l0 -2560 2560 0 2560 0 0 2560 0 2560 -2560 0 -2560 0 0
-2560z m3885 1078 c3 -189 5 -381 3 -428 l-3 -85 -55 -6 c-150 -16 -256 -131
-296 -321 -21 -98 -21 -319 0 -417 42 -197 145 -309 301 -327 l55 -7 0 -151
c0 -83 -3 -289 -7 -459 l-6 -307 -1316 2 -1316 3 -3 1410 c-1 776 0 1416 3
1423 3 9 276 12 1319 12 l1314 0 7 -342z"/>
</g>
</svg>
