<svg xmlns="http://www.w3.org/2000/svg" width="659" height="142" viewBox="0 0 659 142" xmlns:xlink="http://www.w3.org/1999/xlink">
  <defs>
    <path id="a" d="M10.3574269,84.6538462 C10.1525372,78.8527733 5.62744258,74.1880605 2.08166817e-15,73.9768491 L0,10.676997 C5.62744258,10.4657856 10.1525372,5.80107281 10.3574269,2.33146835e-15 L93.2820513,0 L93.2820513,84.6538462 L10.3574269,84.6538462 Z"/>
  </defs>
  <g fill="none" fill-rule="evenodd">
    <g fill="#36423F" transform="translate(134)">
      <path fill-rule="nonzero" d="M61.6299618.56154667L56.7547819.56154667C54.0359316.56154667 51.879602 1.21668445 50.848314 3.08850669L35.0039794 30.7914757 34.1601982 32.3825246 33.4101706 31.0722491 17.6595894 3.08850669C16.6283014 1.21668445 14.4719718.56154667 11.7531215.56154667L6.78418814.56154667C2.84654285.56154667 1.15898058 1.5910489 1.15898058 3.55646224L1.15898058 63.4547737C1.15898058 65.4201871 2.84654285 66.4496893 6.78418814 66.4496893L9.50303845 66.4496893C13.4406837 66.4496893 15.128246 65.4201871 15.128246 63.4547737L15.128246 24.7080535 15.5032598 24.6144624 29.0975114 48.8545603C29.9412926 49.9776536 31.0663341 50.6327914 32.8476498 50.6327914L35.5665001 50.6327914C37.3478158 50.6327914 38.4728574 49.9776536 39.3166385 48.8545603L52.9108901 24.6144624 53.2859039 24.7080535 53.2859039 63.4547737C53.2859039 65.4201871 54.9734662 66.4496893 58.9111115 66.4496893L61.6299618 66.4496893C65.5676071 66.4496893 67.2551693 65.4201871 67.2551693 63.4547737L67.2551693 3.55646224C67.2551693 1.5910489 65.5676071.56154667 61.6299618.56154667zM111.987005 0C92.673792 0 81.8921442 11.8860712 81.8921442 33.505618 81.8921442 55.1251648 92.673792 67.011236 111.987005 67.011236 131.300217 67.011236 141.988112 55.1251648 141.988112 33.505618 141.988112 11.8860712 131.300217 0 111.987005 0zM111.766922 12.3540267C121.798542 12.3540267 126.954982 19.7477246 126.954982 33.505618 126.954982 47.2635114 121.798542 54.7508003 111.766922 54.7508003 101.735302 54.7508003 96.4851081 47.2635114 96.4851081 33.505618 96.4851081 19.7477246 101.735302 12.3540267 111.766922 12.3540267zM205.092976.56154667L202.374125.56154667C198.43648.56154667 196.748918 1.5910489 196.748918 3.55646224L196.748918 40.9929069 194.217574 37.1556713 172.091758 3.08850669C170.685456.935911117 168.62288.56154667 165.90403.56154667L161.872631.56154667C157.934986.56154667 156.247423 1.5910489 156.247423 3.55646224L156.247423 63.4547737C156.247423 65.4201871 157.934986 66.4496893 161.872631 66.4496893L164.591481 66.4496893C168.529127 66.4496893 170.216689 65.4201871 170.216689 63.4547737L170.216689 25.5503735 195.342616 63.9227293C196.748918 66.0753248 198.811494 66.4496893 201.530344 66.4496893L205.092976 66.4496893C209.030621 66.4496893 210.718183 65.4201871 210.718183 63.4547737L210.718183 3.55646224C210.718183 1.5910489 209.030621.56154667 205.092976.56154667zM265.447225.748728893L231.133459.748728893C228.508362.748728893 227.38332 1.87182223 227.38332 4.49237336L227.38332 62.5188626C227.38332 65.1394137 228.508362 66.2625071 231.133459 66.2625071L265.540978 66.2625071C267.509801 66.2625071 268.353582 64.8586404 268.353582 61.5829515L268.353582 58.681627C268.353582 55.4059381 267.509801 54.0020714 265.540978 54.0020714L241.821353 54.0020714 241.821353 38.8403113 262.915881 38.8403113C264.884704 38.8403113 265.728485 37.4364447 265.728485 34.1607558L265.728485 31.2594313C265.728485 27.9837424 264.884704 26.5798757 262.915881 26.5798757L241.821353 26.5798757 241.821353 13.0091645 265.447225 13.0091645C267.416047 13.0091645 268.259828 11.6052978 268.259828 8.32960894L268.259828 5.42828448C268.259828 2.15259557 267.416047.748728893 265.447225.748728893zM307.06365.748728893L286.062875.748728893C283.437778.748728893 282.312737 1.87182223 282.312737 4.49237336L282.312737 62.5188626C282.312737 65.1394137 283.437778 66.2625071 286.062875 66.2625071L307.06365 66.2625071C326.376863 66.2625071 337.064757 54.6572092 337.064757 33.505618 337.064757 12.3540267 326.376863.748728893 307.06365.748728893zM307.06365 13.0091645C317.09527 13.0091645 322.25171 20.2156801 322.25171 33.505618 322.25171 46.7955558 317.09527 54.0020714 307.06365 54.0020714L296.844523 54.0020714 296.844523 13.0091645 307.06365 13.0091645zM389.314847.748728893L355.00108.748728893C352.375984.748728893 351.250942 1.87182223 351.250942 4.49237336L351.250942 62.5188626C351.250942 65.1394137 352.375984 66.2625071 355.00108 66.2625071L389.4086 66.2625071C391.377423 66.2625071 392.221204 64.8586404 392.221204 61.5829515L392.221204 58.681627C392.221204 55.4059381 391.377423 54.0020714 389.4086 54.0020714L365.688975 54.0020714 365.688975 38.8403113 386.783503 38.8403113C388.752326 38.8403113 389.596107 37.4364447 389.596107 34.1607558L389.596107 31.2594313C389.596107 27.9837424 388.752326 26.5798757 386.783503 26.5798757L365.688975 26.5798757 365.688975 13.0091645 389.314847 13.0091645C391.283669 13.0091645 392.12745 11.6052978 392.12745 8.32960894L392.12745 5.42828448C392.12745 2.15259557 391.283669.748728893 389.314847.748728893zM428.213341.748728893L409.931416.748728893C407.306319.748728893 406.181278 1.87182223 406.181278 4.49237336L406.181278 63.4547737C406.181278 65.4201871 407.86884 66.4496893 411.806485 66.4496893L414.994103 66.4496893C418.931748 66.4496893 420.61931 65.4201871 420.61931 63.4547737L420.61931 40.6185425 424.275695 40.6185425C430.36967 40.6185425 431.869726 42.4903647 433.744795 46.2340092L441.151318 64.4842759C441.713839 65.9817337 443.870168 66.4496893 446.589019 66.4496893L450.43291 66.4496893C454.276802 66.4496893 456.058118 65.7009604 456.058118 64.5778671 456.058118 64.1099115 455.870611 63.5483648 455.589351 62.7996359L447.339046 42.2095914C445.745237 38.1851736 442.932634 34.5351202 440.588797 33.5992091L440.588797 33.2248446C447.057786 30.7914757 451.557952 25.5503735 451.557952 18.3438579 451.557952 7.11292449 444.432689.748728893 428.213341.748728893zM428.869615 13.0091645C433.744795 13.0091645 436.744905 15.8168979 436.744905 20.122089 436.744905 24.6144624 433.369781 28.1709246 429.525889 28.1709246L420.61931 28.1709246 420.61931 13.0091645 428.869615 13.0091645zM494.998893 0C475.68568 0 464.904033 11.8860712 464.904033 33.505618 464.904033 55.1251648 475.68568 67.011236 494.998893 67.011236 514.312106 67.011236 525 55.1251648 525 33.505618 525 11.8860712 514.312106 0 494.998893 0zM494.998893 12.3540267C505.030513 12.3540267 510.186953 19.7477246 510.186953 33.505618 510.186953 47.2635114 505.030513 54.7508003 494.998893 54.7508003 484.967273 54.7508003 479.717079 47.2635114 479.717079 33.505618 479.717079 19.7477246 484.967273 12.3540267 494.998893 12.3540267zM12.8098814 114.876404C8.63911335 114.876404 4.84282195 113.949982 1.42284736 112.097137.713457957 111.603045.359223301 110.923668.359223301 110.059007.359223301 109.40052.588325715 108.823777 1.04745063 108.329685 1.50657555 107.835593 2.08991262 107.588547 2.79930202 107.588547 3.17469875 107.588547 3.55009548 107.671198 3.9254922 107.835593 5.26054281 108.412336 6.59467334 108.864648 7.92972395 109.194346 9.26477456 109.524043 10.7663615 109.688438 12.4344847 109.688438 17.0643776 109.688438 19.3793241 108.227052 19.3793241 105.303371 19.3793241 104.356058 18.8373911 103.63581 17.752605 103.141718 16.710143 102.647626 14.9785336 102.091772 12.5596169 101.474157 10.0983761 100.897414 8.05485619 100.300689 6.42813704 99.6830736 4.84282195 99.0654585 3.46636728 98.1390359 2.29877305 96.9038057 1.17258287 95.627704.609487785 93.9601433.609487785 91.9011236.609487785 89.0192227 1.65194977 86.6722854 3.73779384 84.8603117 5.86504195 83.0483381 8.88937784 82.1428054 12.8098814 82.1428054 16.0219156 82.1428054 19.0453314 82.6577873 21.8819689 83.6868431 22.4662261 83.8512377 22.904189 84.1600452 23.1958575 84.6132657 23.5298502 85.0664862 23.6963865 85.5396883 23.6963865 86.0337804 23.6963865 86.692267 23.446122 87.2690105 22.945593 87.7631026 22.4864681 88.2571946 21.903131 88.5042407 21.1937416 88.5042407 20.9848812 88.5042407 20.7143747 88.4633691 20.380382 88.3807177 17.9614654 87.6395796 15.5839528 87.2690105 13.2478442 87.2690105 10.9954639 87.2690105 9.22245042 87.6804511 7.92972395 88.5042407 6.67840153 89.2862503 6.05274032 90.3162143 6.05274032 91.5923161 6.05274032 92.8275462 6.63699748 93.7330789 7.80459171 94.3098224 8.97218594 94.8865659 10.7866034 95.4424195 13.2478442 95.9773831 15.709085 96.5949982 17.7112009 97.2126133 19.2541919 97.8302283 20.7971828 98.4069718 22.1110714 99.3333945 23.1958575 100.609496 24.3220477 101.885598 24.8851428 103.594938 24.8851428 105.735701 24.8851428 108.370556 23.8215187 110.553099 21.6942706 112.282421 19.6084265 114.011743 16.6475768 114.876404 12.8098814 114.876404zM35.3631279 114.567597C34.5709304 114.567597 33.902945 114.299661 33.361012 113.764697 32.819079 113.229734 32.5476524 112.570339 32.5476524 111.788329L32.5476524 85.2926423C32.5476524 84.5106326 32.819079 83.8512377 33.361012 83.316274 33.902945 82.7395305 34.5709304 82.4516129 35.3631279 82.4516129 36.1553254 82.4516129 36.8233107 82.7395305 37.3652437 83.316274 37.9495009 83.8512377 38.2411694 84.5106326 38.2411694 85.2926423L38.2411694 87.8248641C39.4087637 86.1781933 40.8063804 84.8194401 42.4330995 83.7486046 44.1012227 82.677769 46.2496329 82.1428054 48.87741 82.1428054 51.2135186 82.1428054 53.2156344 82.7604204 54.8837576 83.9956506 56.5518808 85.2308808 57.7406371 86.7340469 58.4500265 88.5042407 61.0363996 84.2635866 64.8731749 82.1428054 69.9621928 82.1428054 72.2983014 82.1428054 74.2378511 82.7195489 75.7808421 83.8721276 77.3661572 85.0247063 78.5337514 86.5069825 79.2845448 88.3189561 80.0353383 90.1309298 80.410735 92.0246466 80.410735 94.0010149L80.410735 111.788329C80.410735 112.570339 80.1190665 113.229734 79.5348093 113.764697 78.9928763 114.299661 78.324891 114.567597 77.5326935 114.567597 76.740496 114.567597 76.0725106 114.299661 75.5305776 113.764697 74.9886446 113.229734 74.717218 112.570339 74.717218 111.788329L74.717218 95.112722C74.717218 92.4360872 74.2378511 90.4806089 73.2781972 89.2453788 72.3185433 87.969277 70.6715822 87.330772 68.3354737 87.330772 66.2082255 87.330772 64.4352121 87.8866256 63.0173534 88.9983327 61.6408987 90.0691683 60.4107384 91.489683 59.3259522 93.2598768L59.3259522 111.788329C59.3259522 112.570339 59.0342837 113.229734 58.4500265 113.764697 57.9080935 114.299661 57.2401082 114.567597 56.4479107 114.567597 55.6557132 114.567597 54.9877278 114.299661 54.4457948 113.764697 53.9038618 113.229734 53.6324352 112.570339 53.6324352 111.788329L53.6324352 95.112722C53.6324352 92.4360872 53.1530683 90.4806089 52.1934144 89.2453788 51.2337605 87.969277 49.5867994 87.330772 47.2506909 87.330772 45.1234427 87.330772 43.3504293 87.8866256 41.9325706 88.9983327 40.5561159 90.0691683 39.3259556 91.489683 38.2411694 93.2598768L38.2411694 111.788329C38.2411694 112.570339 37.9495009 113.229734 37.3652437 113.764697 36.8233107 114.299661 36.1553254 114.567597 35.3631279 114.567597zM98.1151071 114.876404C96.2795275 114.876404 94.5690802 114.505835 92.9846852 113.764697 91.4407741 113.023559 90.2106138 111.952724 89.293284 110.553099 88.3750342 109.111694 87.9168294 107.465024 87.9168294 105.612178 87.9168294 102.564975 89.1258277 100.136294 91.5456644 98.3243204 94.0059851 96.5123468 97.5934161 95.6068141 102.307037 95.6068141L109.877538 95.6068141 109.877538 95.112722C109.877538 92.3952157 109.189311 90.4397373 107.812856 89.2453788 106.477805 88.0510202 104.371719 87.454295 101.493678 87.454295 99.9083625 87.454295 98.4905038 87.5778181 97.2391814 87.8248641 96.029263 88.0719101 94.6739704 88.4424792 93.1723835 88.9365712 92.8383909 89.0192227 92.5669643 89.0600942 92.359024 89.0600942 91.7333628 89.0600942 91.1905096 88.8339381 90.7323048 88.3807177 90.2731799 87.9274972 90.0440775 87.3716436 90.0440775 86.7131569 90.0440775 85.6014498 90.5860105 84.8194401 91.6707966 84.3662196 95.2159035 82.8839435 98.8235764 82.1428054 102.494736 82.1428054 105.372777 82.1428054 107.791694 82.7195489 109.752406 83.8721276 111.754521 85.0247063 113.213784 86.5278724 114.132034 88.3807177 115.090768 90.1926913 115.571055 92.1690595 115.571055 94.3098224L115.571055 111.788329C115.571055 112.570339 115.278466 113.229734 114.695129 113.764697 114.152276 114.299661 113.485211 114.567597 112.693013 114.567597 111.899896 114.567597 111.23283 114.299661 110.690897 113.764697 110.148044 113.229734 109.877538 112.570339 109.877538 111.788329L109.877538 110.18253C106.790636 113.311477 102.870132 114.876404 98.1151071 114.876404zM100.242355 109.935484C102.077015 109.935484 103.850028 109.503153 105.560476 108.638492 107.270003 107.73296 108.709024 106.621252 109.877538 105.303371L109.877538 100.115404 103.057831 100.115404C96.7588944 100.115404 93.6103464 101.742093 93.6103464 104.994563 93.6103464 106.476839 94.1108754 107.671198 95.1119333 108.576731 96.1543953 109.482263 97.8648426 109.935484 100.242355 109.935484zM127.928784 114.567597C127.136586 114.567597 126.469521 114.299661 125.926668 113.764697 125.384735 113.229734 125.113308 112.570339 125.113308 111.788329L125.113308 85.2926423C125.113308 84.5106326 125.384735 83.8512377 125.926668 83.316274 126.469521 82.7395305 127.136586 82.4516129 127.928784 82.4516129 128.721901 82.4516129 129.388967 82.7395305 129.9309 83.316274 130.515157 83.8512377 130.806825 84.5106326 130.806825 85.2926423L130.806825 87.9483871C133.727191 84.078302 137.000871 82.1428054 140.629706 82.1428054L140.942537 82.1428054C141.735655 82.1428054 142.381558 82.4107413 142.882087 82.945705 143.42494 83.4806686 143.695446 84.1400635 143.695446 84.9220732 143.695446 85.7040829 143.42494 86.3425879 142.882087 86.83668 142.340154 87.330772 141.651926 87.5778181 140.817405 87.5778181L140.504574 87.5778181C138.502458 87.5778181 136.667799 88.0719101 134.998756 89.0600942 133.330632 90.0074068 131.933016 91.3243801 130.806825 93.0128307L130.806825 111.788329C130.806825 112.570339 130.515157 113.229734 129.9309 113.764697 129.388967 114.299661 128.721901 114.567597 127.928784 114.567597zM160.076729 114.876404C153.986653 114.876404 150.942075 112.158898 150.942075 106.723885L150.942075 87.5778181 146.499881 87.5778181C146.165888 87.5778181 145.87422 87.475185 145.623955 87.2690105 145.415095 87.0219645 145.311124 86.7340469 145.311124 86.4043494 145.311124 85.9929088 145.498823 85.6423214 145.87422 85.3544038L154.383212 77.1401232C154.758609 76.7695542 155.112843 76.5842697 155.446836 76.5842697 155.779909 76.5842697 156.051335 76.7077927 156.260196 76.9548387 156.51046 77.2018847 156.635592 77.4898024 156.635592 77.8194998L156.635592 82.7604204 163.705564 82.7604204C164.414033 82.7604204 164.998291 82.9865766 165.457415 83.439797 165.91562 83.8930175 166.145643 84.4688527 166.145643 85.1691192 166.145643 85.8276059 165.91562 86.4043494 165.457415 86.8984415 164.998291 87.3516619 164.414033 87.5778181 163.705564 87.5778181L156.635592 87.5778181 156.635592 106.229793C156.635592 107.835593 157.010989 108.864648 157.761783 109.317869 158.55398 109.729309 159.533876 109.935484 160.70239 109.935484 161.535992 109.935484 162.370513 109.811961 163.205035 109.564915 163.371571 109.524043 163.538108 109.482263 163.705564 109.441392 163.913504 109.40052 164.163769 109.37963 164.456358 109.37963 165.039695 109.37963 165.561386 109.605786 166.020511 110.059007 166.478715 110.470448 166.708738 110.98543 166.708738 111.603045 166.708738 112.550357 166.228451 113.270605 165.269717 113.764697 163.642998 114.505835 161.911389 114.876404 160.076729 114.876404z"/>
    </g>
    <polygon fill="#2EB393" fill-rule="nonzero" points="57.615 114.692 57.615 142 107 114.692"/>
    <path fill="#50E3C2" fill-rule="nonzero" d="M2.88000016,0 L107,0 L107,114.692308 L2.88000016,114.692308 C1.28941999,114.692308 7.52065506e-15,113.402888 -4.4408921e-16,111.812308 L-4.4408921e-16,2.88000016 C-6.38879101e-16,1.28941999 1.28941999,7.36274046e-16 2.88000016,4.4408921e-16 Z"/>
    <g transform="translate(13.718 13.654)">
      <mask id="b" fill="white">
        <use xlink:href="#a"/>
      </mask>
      <use fill="#FFFFFF" fill-rule="nonzero" xlink:href="#a"/>
      <path fill="#30B294" d="M93.3761956,20.54705 C103.382016,20.54705 108.525195,28.1624596 108.525195,42.3329052 C108.525195,56.5033509 103.382016,64.215158 93.3761956,64.215158 C83.3703751,64.215158 78.133684,56.5033509 78.133684,42.3329052 C78.133684,28.1624596 83.3703751,20.54705 93.3761956,20.54705 Z" mask="url(#b)"/>
    </g>
  </g>
</svg>
